<svg width="49" height="49" viewBox="0 0 49 49" fill="none" xmlns="http://www.w3.org/2000/svg">
<g clip-path="url(#clip0_87_1740)">
<path d="M8.55492 0C7.79742 0 7.15617 0.4425 6.84492 1.08C5.53242 1.3275 2.79492 2.0775 2.79492 4.2C2.79492 5.385 5.47992 22.995 12.4249 27.21C12.4212 27.2888 12.3949 27.3675 12.3949 27.45C12.3949 29.6213 13.8537 33.6 16.2349 33.6C18.6162 33.6 20.0749 29.6213 20.0749 27.45C20.0749 27.3675 20.0487 27.2888 20.0449 27.21C26.9899 22.995 29.6749 5.385 29.6749 4.2C29.6749 2.0775 26.9374 1.3275 25.6249 1.08C25.3137 0.4425 24.6724 0 23.9149 0C22.8537 0 21.9949 0.85875 21.9949 1.92C21.9949 2.98125 22.8537 3.84 23.9149 3.84C24.5637 3.84 25.1262 3.52125 25.4749 3.03C26.6262 3.3 27.7549 3.7875 27.7549 4.2C27.7549 5.9175 24.7962 21.7537 19.2349 25.44C18.6124 24.9713 17.8362 24.96 17.4649 24.96C17.2774 24.96 17.0712 24.9525 16.8649 24.96C16.4599 24.975 16.0099 24.975 15.6049 24.96C15.3987 24.9525 15.1924 24.96 15.0049 24.96C14.6337 24.96 13.8537 24.9713 13.2349 25.44C7.67367 21.7575 4.71492 5.9175 4.71492 4.2C4.71492 3.81 5.76492 3.315 6.99492 3.03C7.34367 3.52125 7.90617 3.84 8.55492 3.84C9.61617 3.84 10.4749 2.98125 10.4749 1.92C10.4749 0.85875 9.61617 0 8.55492 0ZM42.1549 22.08C38.4499 22.08 35.4349 25.095 35.4349 28.8C35.4349 32.505 38.4499 35.52 42.1549 35.52C45.8599 35.52 48.8749 32.505 48.8749 28.8C48.8749 25.095 45.8599 22.08 42.1549 22.08ZM42.1549 25.92C43.7412 25.92 45.0349 27.2138 45.0349 28.8C45.0349 30.3863 43.7412 31.68 42.1549 31.68C40.5687 31.68 39.2749 30.3863 39.2749 28.8C39.2749 27.2138 40.5687 25.92 42.1549 25.92ZM17.3149 35.37C16.9699 35.4675 16.6174 35.52 16.2349 35.52C15.9349 35.52 15.6424 35.49 15.3649 35.43C15.7737 40.1325 17.9637 47.04 29.6749 47.04C39.1624 47.04 41.9674 41.1375 42.7849 37.41C42.5824 37.425 42.3649 37.44 42.1549 37.44C41.7087 37.44 41.2887 37.3838 40.8649 37.32C40.0887 40.53 37.5837 45.12 29.6749 45.12C20.2999 45.12 17.8362 40.545 17.3149 35.37Z" fill="#32AFFC"/>
</g>
<defs>
<clipPath id="clip0_87_1740">
<rect width="48" height="48" fill="white" transform="translate(0.875)"/>
</clipPath>
</defs>
</svg>
