<svg width="49" height="48" viewBox="0 0 49 48" fill="none" xmlns="http://www.w3.org/2000/svg">
<path d="M19.3057 1.91807C19.2454 1.91678 19.1852 1.92117 19.1257 1.93119C14.7312 1.99239 11.0684 3.39193 8.50946 5.84994C5.89259 8.36362 4.46509 11.9461 4.46509 16.0799C4.46509 19.1297 5.59363 21.5058 6.83884 23.7318C8.08405 25.9578 9.44167 28.0706 10.1838 30.7668V30.7612C11.0413 33.9522 11.6492 37.6043 12.5913 40.5506C13.0624 42.0237 13.6103 43.3298 14.4007 44.3437C15.1912 45.3577 16.3279 46.0799 17.6707 46.0799C18.983 46.0799 20.1902 45.5859 20.9801 44.6324C21.77 43.679 22.1295 42.3649 22.1295 40.8074C22.1295 36.981 22.903 31.9116 23.6857 27.5343C23.8181 26.9055 24.2178 26.7187 24.657 26.7187C25.0973 26.7187 25.4554 26.8771 25.5588 27.5006L25.5607 27.5081V27.5156C26.3438 31.8052 27.1207 36.9747 27.1207 40.8074C27.1207 42.3644 27.4803 43.6789 28.2701 44.6324C29.0598 45.586 30.267 46.0799 31.5795 46.0799C32.9257 46.0799 34.062 45.3493 34.8513 44.3287C35.6406 43.3081 36.188 41.9949 36.6588 40.5168C37.6002 37.5618 38.2104 33.9098 39.0663 30.7668C39.8085 28.0706 41.1661 25.9579 42.4113 23.7318C43.656 21.5067 44.7841 19.131 44.7851 16.0837C44.8289 11.9507 43.4231 8.36586 40.8176 5.85181C38.2104 3.33621 34.4443 1.91994 29.9163 1.91994C27.9492 1.91994 26.2124 2.18491 24.6682 2.68869C23.1241 2.18491 21.3872 1.91994 19.4201 1.91994C19.4086 1.91994 19.3978 1.9218 19.3863 1.92182C19.3595 1.91944 19.3326 1.91818 19.3057 1.91807ZM29.9163 3.83994C34.0476 3.83994 37.2806 5.10722 39.4845 7.23369C41.6883 9.36016 42.9059 12.3732 42.8651 16.0687V16.0743V16.0799C42.8651 18.662 41.9388 20.6423 40.7351 22.7943C39.5313 24.9463 38.0461 27.2334 37.2138 30.2568V30.2587C36.3202 33.5393 35.7042 37.1917 34.8307 39.9337C34.394 41.3047 33.8853 42.4384 33.3326 43.1531C32.7799 43.8676 32.2886 44.1599 31.5795 44.1599C30.705 44.1599 30.1625 43.9068 29.7495 43.4081C29.3364 42.9094 29.0407 42.0661 29.0407 40.8074C29.0407 36.7246 28.2431 31.5178 27.4526 27.1856C27.2056 25.6971 25.9002 24.7987 24.657 24.7987C23.4137 24.7987 22.1116 25.6691 21.8051 27.1481L21.8013 27.1612L21.7995 27.1743C21.0091 31.5915 20.2095 36.7202 20.2095 40.8074C20.2095 42.0667 19.9137 42.9095 19.5007 43.4081C19.0878 43.9066 18.5453 44.1599 17.6707 44.1599C16.9581 44.1599 16.4654 43.87 15.9138 43.1624C15.3622 42.4549 14.8559 41.3305 14.4195 39.9656C13.5465 37.2358 12.9308 33.5841 12.0382 30.2624L12.0363 30.2606V30.2568C11.2041 27.2334 9.71884 24.9462 8.51509 22.7943C7.31134 20.6425 6.38509 18.6625 6.38509 16.0799C6.38509 12.3821 7.62495 9.36396 9.84071 7.23556C12.0368 5.12603 15.2344 3.86592 19.3132 3.84369C22.7176 4.1011 25.6891 5.64418 27.7901 8.08307C27.8715 8.18137 27.9717 8.26246 28.0848 8.3216C28.1979 8.38073 28.3216 8.41672 28.4488 8.42746C28.576 8.4382 28.704 8.42347 28.8255 8.38414C28.9469 8.34481 29.0592 8.28167 29.156 8.1984C29.2527 8.11514 29.3319 8.01342 29.3888 7.8992C29.4458 7.78498 29.4794 7.66055 29.4877 7.53319C29.496 7.40583 29.4788 7.27809 29.4371 7.15745C29.3955 7.03681 29.3302 6.92568 29.2451 6.83056C28.3738 5.81916 27.3636 4.94618 26.2526 4.22057C27.333 3.97392 28.5485 3.83994 29.9163 3.83994Z" fill="#32AFFC"/>
</svg>
