<svg width="49" height="48" viewBox="0 0 49 48" fill="none" xmlns="http://www.w3.org/2000/svg">
<g clip-path="url(#clip0_87_1755)">
<path d="M24.375 -0.0300293C19.5337 -0.0300293 16.2112 1.13622 14.115 2.33997C12.0187 3.54372 11.085 4.85997 11.085 4.85997C10.9425 5.05872 10.8787 5.30622 10.905 5.54997L11.175 7.73997C4.49249 12.7537 1.88249 21.8737 0.824992 29.7C-0.236258 37.5712 0.314992 44.25 0.314992 44.25C0.337492 44.5125 0.464992 44.7562 0.667493 44.925C0.869992 45.0937 1.13249 45.1762 1.39499 45.15C1.39499 45.15 12.705 44.2687 19.485 46.53C19.515 46.5412 19.545 46.5525 19.575 46.56C21.0075 47.4562 22.6012 48 24.375 48C26.1712 48 27.7875 47.4487 29.235 46.53C29.2425 46.5262 29.2575 46.5337 29.265 46.53C29.2725 46.5262 29.2875 46.5337 29.295 46.53C36.0825 44.2912 47.325 45.15 47.325 45.15C47.8612 45.2025 48.3412 44.8162 48.405 44.28C48.405 44.28 49.1137 37.8637 48.075 30.12C47.0587 22.545 44.3625 13.59 37.545 8.03997L37.845 5.54997C37.8712 5.30622 37.8075 5.05872 37.665 4.85997C37.665 4.85997 36.7312 3.54372 34.635 2.33997C32.5387 1.13622 29.2162 -0.0300293 24.375 -0.0300293ZM24.375 1.94997C28.9012 1.94997 31.845 3.01497 33.645 4.04997C35.055 4.85997 35.5762 5.47872 35.805 5.75997L35.505 8.30997C35.505 8.33997 35.505 8.36997 35.505 8.39997L34.485 16.89C34.2075 16.9575 33.495 17.115 32.595 17.28C31.2225 17.5275 29.2612 17.7975 26.655 17.91C26.6437 17.91 26.6362 17.91 26.625 17.91C26.4075 17.8425 26.175 17.8537 25.965 17.94C25.4475 17.955 24.93 17.97 24.375 17.97C20.5837 17.97 17.8987 17.6437 16.185 17.34C14.8537 17.1037 14.5762 16.9762 14.325 16.89L12.945 5.75997C13.1737 5.47872 13.695 4.85997 15.105 4.04997C16.905 3.01497 19.8487 1.94997 24.375 1.94997ZM23.415 5.75997V9.59997H19.575V11.52H23.415V15.36H25.335V11.52H29.175V9.59997H25.335V5.75997H23.415ZM11.475 10.08L12.435 17.82C12.48 18.1875 12.72 18.4987 13.065 18.63C13.065 18.63 14.0212 18.9637 15.855 19.29C17.6887 19.6162 20.475 19.95 24.375 19.95C22.3125 22.215 17.9662 24.9075 10.995 24.96C10.7437 24.8925 10.0725 24.7425 9.19499 25.02C8.66249 25.1887 8.09249 25.545 7.69499 26.16C7.29749 26.775 7.09499 27.6037 7.09499 28.62C7.09499 30.78 8.61374 32.5237 10.605 33.03C11.8987 36.3825 13.5037 39.96 15.645 42.81C15.8737 43.1137 16.125 43.395 16.365 43.68C10.1737 42.5287 3.53624 43.0387 2.26499 43.14C2.18249 41.9212 1.88999 36.7575 2.80499 29.97C3.77249 22.7925 6.18749 14.7112 11.475 10.08ZM37.275 10.41C42.7762 15.5287 45.165 23.4637 46.095 30.39C46.9875 37.0387 46.5937 41.9625 46.485 43.14C45.2212 43.0387 38.5987 42.5437 32.415 43.68C32.6512 43.3987 32.88 43.1062 33.105 42.81C35.2462 39.96 36.8512 36.3825 38.145 33.03C40.1475 32.5312 41.655 30.7875 41.655 28.62C41.655 26.5312 40.6987 25.26 39.675 24.78C39.06 24.4912 38.5275 24.4425 38.145 24.45C37.9612 24.3225 37.0537 23.6962 35.955 22.56C34.9762 21.5475 34.0725 20.2725 33.765 19.08C34.8712 18.87 35.655 18.69 35.655 18.69C36.045 18.5812 36.3262 18.2512 36.375 17.85L37.275 10.41ZM31.845 19.41C32.2275 21.2062 33.45 22.7437 34.575 23.91C35.9325 25.3162 37.275 26.22 37.275 26.22C37.4775 26.355 37.725 26.4112 37.965 26.37C37.965 26.37 38.4187 26.325 38.835 26.52C39.2512 26.715 39.735 27.03 39.735 28.62C39.735 30.0487 38.6775 31.1512 37.335 31.29C36.9787 31.335 36.675 31.5787 36.555 31.92C35.265 35.3137 33.6112 38.9325 31.575 41.64C30.6525 42.8662 29.67 43.8825 28.605 44.64C28.5937 44.64 28.5862 44.64 28.575 44.64C28.425 44.6962 28.29 44.79 28.185 44.91C28.1737 44.9175 28.1662 44.9325 28.155 44.94C28.1437 44.9512 28.1362 44.9587 28.125 44.97C26.9737 45.6825 25.7287 46.08 24.375 46.08C22.9987 46.08 21.7312 45.675 20.565 44.94C20.535 44.9175 20.505 44.8987 20.475 44.88C20.4037 44.8087 20.325 44.7487 20.235 44.7C20.205 44.6775 20.175 44.6587 20.145 44.64C19.08 43.8825 18.0975 42.8662 17.175 41.64C15.1387 38.9325 13.515 35.3137 12.225 31.92C12.0975 31.5712 11.7825 31.3275 11.415 31.29C10.0687 31.1512 9.01499 30.0487 9.01499 28.62C9.01499 27.8625 9.17249 27.435 9.31499 27.21C9.45749 26.985 9.60749 26.91 9.79499 26.85C10.1737 26.73 10.665 26.85 10.665 26.85C10.7512 26.8725 10.845 26.8837 10.935 26.88C19.665 26.835 24.8512 23.0137 26.835 19.89C28.7737 19.7962 30.4575 19.6125 31.845 19.41Z" fill="#32AFFC"/>
</g>
<defs>
<clipPath id="clip0_87_1755">
<rect width="48" height="48" fill="white" transform="translate(0.375)"/>
</clipPath>
</defs>
</svg>
