<svg width="49" height="48" viewBox="0 0 49 48" fill="none" xmlns="http://www.w3.org/2000/svg">
<g clip-path="url(#clip0_87_1761)">
<path d="M47.3455 14.3081C45.8686 13.5782 44.3893 12.8508 42.9123 12.121C39.295 10.3369 35.6777 8.55281 32.0603 6.76386C29.6982 5.59412 27.3384 4.42438 24.9809 3.24483C24.3343 2.92045 23.7068 2.91799 23.0601 3.23991C18.9824 5.28202 14.9001 7.31921 10.8198 9.35641C7.58669 10.9685 4.35115 12.5756 1.1156 14.1828C0.738605 14.3695 0.404539 14.603 0.235157 15.0207C-0.0320795 15.6769 0.194593 16.3575 0.831665 16.7311C1.27785 16.994 1.74552 17.2201 2.19888 17.4708C4.69948 18.8567 7.19763 20.2477 9.70287 21.6238C9.97965 21.7762 10.0608 21.9482 10.056 22.2627C10.0369 23.8919 10.0942 25.5261 10.0274 27.1529C9.97011 28.5586 10.507 29.6422 11.4423 30.581C12.4038 31.5443 13.5396 32.2397 14.7398 32.8319C16.8681 33.8813 19.1277 34.4465 21.4613 34.7389C24.482 35.1173 27.4574 34.8716 30.3824 34.0287C32.3342 33.4659 34.1619 32.623 35.8011 31.3746C36.5122 30.834 37.1397 30.2098 37.6336 29.4505C37.9939 28.8951 38.1728 28.2906 38.1704 27.6197C38.1609 25.8135 38.1633 24.0073 38.1514 22.1987C38.149 21.9849 38.2062 21.862 38.3923 21.7637C39.2656 21.3017 40.1318 20.825 41.0003 20.3556C41.048 20.3286 41.1005 20.3138 41.1888 20.277V20.594C41.1888 23.393 41.1864 26.1919 41.1912 28.9911C41.1912 29.1828 41.153 29.3008 40.9764 29.4138C39.4684 30.3697 39.4422 32.3676 40.9144 33.3801C40.9764 33.4218 41.0337 33.471 41.079 33.5054C40.8165 33.729 40.535 33.9207 40.306 34.1664C39.8526 34.6555 39.6474 35.2772 39.6427 35.9407C39.6259 38.1204 39.6212 40.3001 39.6427 42.4801C39.6546 43.8391 40.6186 44.8712 41.9142 44.9867C43.1549 45.0973 44.2621 44.2618 44.515 43.0036C44.5603 42.775 44.5698 42.5367 44.5698 42.3008C44.5722 40.2095 44.5746 38.1183 44.5675 36.027C44.5627 34.8966 44.1762 34.2355 43.1287 33.5475C43.2241 33.4811 43.3076 33.4271 43.3887 33.3705C44.8394 32.3753 44.7679 30.2767 43.2408 29.4092C43.0237 29.2863 42.976 29.1512 42.976 28.9276C42.976 25.7452 42.9736 22.5655 42.9616 19.3829C42.9616 19.2011 43.0356 19.1274 43.1764 19.0536C44.5674 18.3189 45.9537 17.5767 47.3448 16.8444C47.8411 16.584 48.1226 16.1834 48.125 15.6084C48.1274 15.0162 47.8697 14.5739 47.3424 14.3134L47.3455 14.3081ZM35.9616 28.5634C35.7802 28.7772 35.5941 28.9909 35.3913 29.1826C33.8642 30.63 32.0461 31.5319 30.0776 32.1315C27.4052 32.9449 24.6732 33.1907 21.9029 32.8884C19.8366 32.6623 17.8252 32.1954 15.9283 31.296C14.6398 30.6866 13.4302 29.9494 12.4423 28.8754C12.0296 28.4282 11.8076 27.9269 11.822 27.2904C11.8506 25.9266 11.8315 24.5603 11.8315 23.1964V22.877C11.9365 22.9212 12.0081 22.9433 12.0701 22.9802C13.2059 23.6215 14.3417 24.2654 15.4798 24.9043C17.9302 26.2805 20.3879 27.6468 22.8335 29.0352C23.6829 29.5168 24.4822 29.4923 25.3293 29.0155C28.3667 27.3126 31.4185 25.6317 34.4629 23.9459C35.0809 23.6019 35.7013 23.2603 36.3765 22.8868C36.3765 24.43 36.3718 25.902 36.3789 27.374C36.3813 27.8311 36.2453 28.2243 35.959 28.5609L35.9616 28.5634ZM42.473 43.0571C41.9791 43.3765 41.4279 43.0153 41.4255 42.3469C41.416 40.2483 41.4208 38.1496 41.4279 36.0509C41.4303 35.5471 41.719 35.235 42.1414 35.2399C42.5637 35.2449 42.7951 35.5275 42.7951 36.0558C42.7975 37.0953 42.7951 38.1348 42.7951 39.1742H42.7975C42.7975 40.2334 42.7951 41.2925 42.7999 42.3517C42.7999 42.6441 42.7259 42.8949 42.473 43.0571ZM41.6092 31.4314C41.6021 31.1341 41.8287 30.9006 42.1294 30.8932C42.4205 30.8859 42.6567 31.1046 42.6614 31.3798C42.6638 31.6649 42.4228 31.9204 42.1389 31.9278C41.8573 31.9352 41.6164 31.7091 41.6116 31.4314H41.6092ZM45.415 15.665C44.1312 16.3556 42.85 17.051 41.5639 17.7342C41.4637 17.7858 41.3253 17.7932 41.2108 17.7735C39.2661 17.4516 37.3215 17.1248 35.3769 16.793C33.1411 16.4096 30.9078 16.0238 28.6718 15.6381C28.0062 15.5226 27.3428 15.4071 26.6843 15.2916C26.67 15.24 26.6556 15.2129 26.6556 15.1859C26.5697 13.5665 25.2264 12.5368 23.6755 12.6842C22.1317 12.8317 21.0866 14.4585 21.5639 15.9624C22.0721 17.5622 24.0787 18.1814 25.4984 17.1886C25.6249 17.1001 25.8158 17.0485 25.9637 17.0682C26.6891 17.1714 27.412 17.3066 28.135 17.4319C31.1891 17.9553 34.2433 18.4788 37.295 19.0022C37.8079 19.0906 38.3186 19.1816 38.9079 19.2848C38.729 19.3904 38.6264 19.4543 38.519 19.5133C37.1709 20.2456 35.818 20.9705 34.4746 21.7127C31.1557 23.541 27.8392 25.3717 24.5298 27.2173C24.1599 27.4237 23.8736 27.4212 23.5062 27.2123C20.9054 25.7305 18.2926 24.2708 15.6803 22.8087C11.6216 20.5356 7.56055 18.2649 3.49978 15.9969C3.26118 15.8642 3.02018 15.729 2.73148 15.5693C3.11086 15.3776 3.44016 15.2105 3.77178 15.0458C8.68704 12.6007 13.6049 10.1556 18.5202 7.70808C20.2357 6.85534 21.9537 6.00267 23.6645 5.14257C23.9174 5.01479 24.1321 4.99758 24.3898 5.13274C24.9577 5.43254 25.5423 5.69795 26.1173 5.98303C32.123 8.94663 38.1286 11.9103 44.1342 14.8765C44.5947 15.1026 45.0529 15.3361 45.542 15.5794C45.4704 15.6285 45.4418 15.6531 45.4108 15.6703L45.415 15.665ZM24.7709 15.176C24.7685 15.5323 24.4344 15.8198 24.024 15.8198C23.5945 15.8198 23.2772 15.5692 23.2724 15.2276C23.2676 14.8418 23.616 14.5174 24.0359 14.5223C24.4559 14.5272 24.7732 14.8098 24.7732 15.176L24.7709 15.176Z" fill="#32AFFC"/>
</g>
<defs>
<clipPath id="clip0_87_1761">
<rect width="48" height="48" fill="white" transform="translate(0.125)"/>
</clipPath>
</defs>
</svg>
