<svg width="20" height="20" viewBox="0 0 20 20" fill="none" xmlns="http://www.w3.org/2000/svg">
<g clip-path="url(#clip0_352_3129)">
<path d="M3.58991 17.0832C3.16897 17.0832 2.81266 16.9374 2.521 16.6457C2.22933 16.3541 2.0835 15.9978 2.0835 15.5768V12.2916H7.91683V13.7499H12.0835V12.2916H17.9168V15.5768C17.9168 15.9978 17.771 16.3541 17.4793 16.6457C17.1876 16.9374 16.8313 17.0832 16.4104 17.0832H3.58991ZM9.16681 12.4999V10.8333H10.8335V12.4999H9.16681ZM2.0835 11.0416V6.92304C2.0835 6.5021 2.22933 6.14579 2.521 5.85412C2.81266 5.56246 3.16897 5.41662 3.58991 5.41662H7.0835V4.0064C7.0835 3.58547 7.22933 3.22917 7.521 2.9375C7.81266 2.64583 8.16897 2.5 8.58991 2.5H11.4104C11.8313 2.5 12.1876 2.64583 12.4793 2.9375C12.771 3.22917 12.9168 3.58547 12.9168 4.0064V5.41662H16.4104C16.8313 5.41662 17.1876 5.56246 17.4793 5.85412C17.771 6.14579 17.9168 6.5021 17.9168 6.92304V11.0416H12.0835V9.58329H7.91683V11.0416H2.0835ZM8.33348 5.41662H11.6668V4.0064C11.6668 3.94228 11.6401 3.88352 11.5867 3.8301C11.5333 3.77667 11.4745 3.74996 11.4104 3.74996H8.58991C8.5258 3.74996 8.46703 3.77667 8.4136 3.8301C8.36018 3.88352 8.33348 3.94228 8.33348 4.0064V5.41662Z" fill="#002F70"/>
</g>
<defs>
<clipPath id="clip0_352_3129">
<rect width="20" height="20" fill="white"/>
</clipPath>
</defs>
</svg>
