<svg width="20" height="20" viewBox="0 0 20 20" fill="none" xmlns="http://www.w3.org/2000/svg">
<path d="M13.1656 4.69279C13.2326 4.6855 13.2569 4.77808 13.1951 4.80432C12.3875 5.14109 10.7693 6.16744 10.6619 9.14444C10.6589 9.21952 10.6582 16.2976 10.6582 16.3078H9.23071V8.97606C9.23071 6.58002 11.2324 4.9071 13.1656 4.69279Z" fill="#002F70"/>
<path d="M6.75747 4.69279C6.69048 4.6855 6.66619 4.77808 6.72803 4.80432C7.53562 5.14109 9.15376 6.16744 9.26124 9.14444C9.26418 9.21952 9.26492 16.2976 9.26492 16.3078H10.6924V8.97606C10.6924 6.58002 8.6907 4.9071 6.75747 4.69279Z" fill="#002F70"/>
<path d="M4.62852 4.69279C4.69423 4.6855 4.71806 4.77808 4.65741 4.80432C3.86534 5.14109 2.27832 6.16744 2.17291 9.14444C2.17002 9.21952 2.1693 15.4374 2.1693 15.4374V16.3078H0.769287V8.97606C0.769287 6.58002 2.73248 4.9071 4.62852 4.69279Z" fill="#002F70"/>
<path d="M8.85924 0.923502C8.92494 0.916233 8.94877 1.00855 8.88812 1.03471C8.09606 1.37053 6.50904 2.39396 6.40362 5.3625C6.40073 5.43737 6.40001 15.9552 6.40001 15.9552V16.3077H5V5.19459C5 2.80537 6.96319 1.1372 8.85924 0.923502Z" fill="#002F70"/>
<path d="M11.1407 0.923502C11.075 0.916233 11.0512 1.00855 11.1119 1.03471C11.9039 1.37053 13.4909 2.39396 13.5964 5.3625C13.5992 5.43737 13.6 15.9552 13.6 15.9552V16.3077H15V5.19459C15 2.80537 13.0368 1.1372 11.1407 0.923502Z" fill="#002F70"/>
<path d="M15.3715 4.69279C15.3058 4.6855 15.2819 4.77808 15.3426 4.80432C16.1346 5.14109 17.7217 6.16744 17.8271 9.14444C17.83 9.21952 17.8307 16.2976 17.8307 16.3078H19.2307V8.97606C19.2307 6.58002 17.2682 4.9071 15.3715 4.69279Z" fill="#002F70"/>
<path d="M19.2308 17.6924H0.769287V19.077H19.2308V17.6924Z" fill="#002F70"/>
</svg>
