<svg width="20" height="20" viewBox="0 0 20 20" fill="none" xmlns="http://www.w3.org/2000/svg">
<path d="M9.04167 17.9374C8.29167 17.3958 7.48972 16.9583 6.63583 16.6249C5.78139 16.2916 4.88889 16.0624 3.95833 15.9374C3.54167 15.8819 3.19444 15.7046 2.91667 15.4058C2.63889 15.1074 2.5 14.7638 2.5 14.3749V8.49992C2.5 7.97214 2.68056 7.53797 3.04167 7.19742C3.40278 6.85742 3.82639 6.72909 4.3125 6.81242C5.38194 6.99297 6.39944 7.31936 7.365 7.79159C8.33 8.26381 9.20833 8.87492 10 9.62492C10.7917 8.87492 11.6703 8.26381 12.6358 7.79159C13.6008 7.31936 14.6181 6.99297 15.6875 6.81242C16.1736 6.72909 16.5972 6.85742 16.9583 7.19742C17.3194 7.53797 17.5 7.97214 17.5 8.49992V14.3749C17.5 14.7638 17.3611 15.1074 17.0833 15.4058C16.8056 15.7046 16.4583 15.8819 16.0417 15.9374C15.1111 16.0624 14.2189 16.2916 13.365 16.6249C12.5106 16.9583 11.7083 17.3958 10.9583 17.9374C10.6806 18.1458 10.3611 18.2499 10 18.2499C9.63889 18.2499 9.31944 18.1458 9.04167 17.9374ZM10 16.5833C10.875 15.9305 11.8056 15.4096 12.7917 15.0208C13.7778 14.6319 14.7917 14.3749 15.8333 14.2499V8.49992C14.8194 8.68047 13.8231 9.04492 12.8442 9.59325C11.8647 10.1421 10.9167 10.8749 10 11.7916C9.08333 10.8749 8.13556 10.1421 7.15667 9.59325C6.17722 9.04492 5.18056 8.68047 4.16667 8.49992V14.2499C5.20833 14.3749 6.22222 14.6319 7.20833 15.0208C8.19444 15.4096 9.125 15.9305 10 16.5833ZM10 7.49992C9.08333 7.49992 8.29861 7.17353 7.64583 6.52075C6.99306 5.86797 6.66667 5.08325 6.66667 4.16659C6.66667 3.24992 6.99306 2.4652 7.64583 1.81242C8.29861 1.15964 9.08333 0.833252 10 0.833252C10.9167 0.833252 11.7014 1.15964 12.3542 1.81242C13.0069 2.4652 13.3333 3.24992 13.3333 4.16659C13.3333 5.08325 13.0069 5.86797 12.3542 6.52075C11.7014 7.17353 10.9167 7.49992 10 7.49992ZM10 5.83325C10.4583 5.83325 10.8508 5.66992 11.1775 5.34325C11.5036 5.01714 11.6667 4.62492 11.6667 4.16659C11.6667 3.70825 11.5036 3.31575 11.1775 2.98909C10.8508 2.66297 10.4583 2.49992 10 2.49992C9.54167 2.49992 9.14944 2.66297 8.82333 2.98909C8.49667 3.31575 8.33333 3.70825 8.33333 4.16659C8.33333 4.62492 8.49667 5.01714 8.82333 5.34325C9.14944 5.66992 9.54167 5.83325 10 5.83325Z" fill="#002F70"/>
</svg>
