<svg width="20" height="20" viewBox="0 0 20 20" fill="none" xmlns="http://www.w3.org/2000/svg">
<g clip-path="url(#clip0_352_268)">
<path d="M10.0002 10.0417C10.4724 10.0417 10.8752 9.87508 11.2085 9.54175C11.5418 9.20841 11.7085 8.80564 11.7085 8.33341C11.7085 7.86119 11.5418 7.45842 11.2085 7.12508C10.8752 6.79175 10.4724 6.62508 10.0002 6.62508C9.52794 6.62508 9.12516 6.79175 8.79183 7.12508C8.4585 7.45842 8.29183 7.86119 8.29183 8.33341C8.29183 8.80564 8.4585 9.20841 8.79183 9.54175C9.12516 9.87508 9.52794 10.0417 10.0002 10.0417ZM10.0002 18.4792C7.72238 16.5487 6.021 14.7534 4.896 13.0934C3.771 11.434 3.2085 9.90286 3.2085 8.50008C3.2085 6.37508 3.89238 4.68397 5.26016 3.42675C6.6285 2.17008 8.2085 1.54175 10.0002 1.54175C11.7918 1.54175 13.3718 2.17008 14.7402 3.42675C16.1079 4.68397 16.7918 6.37508 16.7918 8.50008C16.7918 9.90286 16.2293 11.434 15.1043 13.0934C13.9793 14.7534 12.2779 16.5487 10.0002 18.4792Z" fill="#002F70"/>
<path d="M10.0002 10.0417C10.4724 10.0417 10.8752 9.87508 11.2085 9.54175C11.5418 9.20841 11.7085 8.80564 11.7085 8.33341C11.7085 7.86119 11.5418 7.45842 11.2085 7.12508C10.8752 6.79175 10.4724 6.62508 10.0002 6.62508C9.52794 6.62508 9.12516 6.79175 8.79183 7.12508C8.4585 7.45842 8.29183 7.86119 8.29183 8.33341C8.29183 8.80564 8.4585 9.20841 8.79183 9.54175C9.12516 9.87508 9.52794 10.0417 10.0002 10.0417ZM10.0002 18.4792C7.72238 16.5487 6.021 14.7534 4.896 13.0934C3.771 11.434 3.2085 9.90286 3.2085 8.50008C3.2085 6.37508 3.89238 4.68397 5.26016 3.42675C6.6285 2.17008 8.2085 1.54175 10.0002 1.54175C11.7918 1.54175 13.3718 2.17008 14.7402 3.42675C16.1079 4.68397 16.7918 6.37508 16.7918 8.50008C16.7918 9.90286 16.2293 11.434 15.1043 13.0934C13.9793 14.7534 12.2779 16.5487 10.0002 18.4792Z" fill="#002F70"/>
<path d="M10.0002 10.0417C10.4724 10.0417 10.8752 9.87508 11.2085 9.54175C11.5418 9.20841 11.7085 8.80564 11.7085 8.33341C11.7085 7.86119 11.5418 7.45842 11.2085 7.12508C10.8752 6.79175 10.4724 6.62508 10.0002 6.62508C9.52794 6.62508 9.12516 6.79175 8.79183 7.12508C8.4585 7.45842 8.29183 7.86119 8.29183 8.33341C8.29183 8.80564 8.4585 9.20841 8.79183 9.54175C9.12516 9.87508 9.52794 10.0417 10.0002 10.0417ZM10.0002 18.4792C7.72238 16.5487 6.021 14.7534 4.896 13.0934C3.771 11.434 3.2085 9.90286 3.2085 8.50008C3.2085 6.37508 3.89238 4.68397 5.26016 3.42675C6.6285 2.17008 8.2085 1.54175 10.0002 1.54175C11.7918 1.54175 13.3718 2.17008 14.7402 3.42675C16.1079 4.68397 16.7918 6.37508 16.7918 8.50008C16.7918 9.90286 16.2293 11.434 15.1043 13.0934C13.9793 14.7534 12.2779 16.5487 10.0002 18.4792Z" fill="#002F70"/>
<path d="M10.0002 10.0417C10.4724 10.0417 10.8752 9.87508 11.2085 9.54175C11.5418 9.20841 11.7085 8.80564 11.7085 8.33341C11.7085 7.86119 11.5418 7.45842 11.2085 7.12508C10.8752 6.79175 10.4724 6.62508 10.0002 6.62508C9.52794 6.62508 9.12516 6.79175 8.79183 7.12508C8.4585 7.45842 8.29183 7.86119 8.29183 8.33341C8.29183 8.80564 8.4585 9.20841 8.79183 9.54175C9.12516 9.87508 9.52794 10.0417 10.0002 10.0417ZM10.0002 18.4792C7.72238 16.5487 6.021 14.7534 4.896 13.0934C3.771 11.434 3.2085 9.90286 3.2085 8.50008C3.2085 6.37508 3.89238 4.68397 5.26016 3.42675C6.6285 2.17008 8.2085 1.54175 10.0002 1.54175C11.7918 1.54175 13.3718 2.17008 14.7402 3.42675C16.1079 4.68397 16.7918 6.37508 16.7918 8.50008C16.7918 9.90286 16.2293 11.434 15.1043 13.0934C13.9793 14.7534 12.2779 16.5487 10.0002 18.4792Z" fill="#002F70"/>
</g>
<defs>
<clipPath id="clip0_352_268">
<rect width="20" height="20" fill="white"/>
</clipPath>
</defs>
</svg>
