<svg width="20" height="20" viewBox="0 0 20 20" fill="none" xmlns="http://www.w3.org/2000/svg">
<path d="M14.1186 11.9232C13.5994 11.9232 13.157 11.7405 12.7917 11.3751C12.4263 11.0097 12.2436 10.5674 12.2436 10.0482C12.2436 9.52893 12.4263 9.08663 12.7917 8.72125C13.157 8.35587 13.5994 8.17317 14.1186 8.17317C14.6378 8.17317 15.0801 8.35587 15.4455 8.72125C15.8109 9.08663 15.9936 9.52893 15.9936 10.0482C15.9936 10.5674 15.8109 11.0097 15.4455 11.3751C15.0801 11.7405 14.6378 11.9232 14.1186 11.9232ZM10.1603 16.0898V15.1315C10.1603 14.8356 10.2359 14.5638 10.3873 14.3164C10.5386 14.0689 10.7536 13.8908 11.0321 13.7822C11.5167 13.5792 12.0182 13.4269 12.5366 13.3254C13.0549 13.2239 13.5823 13.1732 14.1186 13.1732C14.6441 13.1732 15.1662 13.2239 15.685 13.3254C16.2037 13.4269 16.7105 13.5792 17.2051 13.7822C17.4836 13.8908 17.6985 14.0689 17.8499 14.3164C18.0012 14.5638 18.0769 14.8356 18.0769 15.1315V16.0898H10.1603ZM8.17305 9.74367C7.37099 9.74367 6.68436 9.45809 6.11318 8.88692C5.54201 8.31574 5.25643 7.62912 5.25643 6.82705C5.25643 6.02496 5.54201 5.33834 6.11318 4.76717C6.68436 4.19599 7.37099 3.9104 8.17305 3.9104C8.97514 3.9104 9.66176 4.19599 10.2329 4.76717C10.8041 5.33834 11.0897 6.02496 11.0897 6.82705C11.0897 7.62912 10.8041 8.31574 10.2329 8.88692C9.66176 9.45809 8.97514 9.74367 8.17305 9.74367ZM1.9231 16.0898V14.2373C1.9231 13.8209 2.0318 13.4383 2.2492 13.0893C2.46662 12.7403 2.76496 12.4777 3.14424 12.3014C3.92949 11.9061 4.74454 11.6054 5.58939 11.3992C6.43423 11.193 7.29546 11.0899 8.17305 11.0899C8.58437 11.0899 8.99569 11.1195 9.40701 11.1788C9.81833 11.2381 10.2297 11.31 10.641 11.3944L10.1089 11.9344L9.57689 12.4745C9.34292 12.4184 9.10894 12.3819 8.87497 12.3651C8.641 12.3483 8.40703 12.3398 8.17305 12.3398C7.39421 12.3398 6.62872 12.429 5.8766 12.6075C5.12446 12.7859 4.4049 13.0556 3.71793 13.4168C3.55768 13.5022 3.4268 13.6141 3.3253 13.7525C3.2238 13.8909 3.17305 14.0524 3.17305 14.2373V14.8398H8.17305V16.0898H1.9231ZM8.17305 8.49371C8.63139 8.49371 9.02375 8.33052 9.35014 8.00413C9.67653 7.67774 9.83972 7.28538 9.83972 6.82705C9.83972 6.36871 9.67653 5.97635 9.35014 5.64996C9.02375 5.32357 8.63139 5.16038 8.17305 5.16038C7.71472 5.16038 7.32236 5.32357 6.99597 5.64996C6.66958 5.97635 6.50639 6.36871 6.50639 6.82705C6.50639 7.28538 6.66958 7.67774 6.99597 8.00413C7.32236 8.33052 7.71472 8.49371 8.17305 8.49371Z" fill="#002F70"/>
</svg>
