<svg width="20" height="20" viewBox="0 0 20 20" fill="none" xmlns="http://www.w3.org/2000/svg">
<path d="M5.95572 4.81473C6.00016 5.47399 6.11127 6.11844 6.28905 6.73325L5.40016 7.62214C5.09646 6.73325 4.90387 5.79251 4.8372 4.81473H5.95572ZM13.2594 13.7184C13.8891 13.8962 14.5335 14.0073 15.1853 14.0518V15.1555C14.2076 15.0888 13.2668 14.8962 12.3705 14.5999L13.2594 13.7184ZM6.66683 3.33325H4.07424C3.66683 3.33325 3.3335 3.66659 3.3335 4.07399C3.3335 11.0295 8.97053 16.6666 15.9261 16.6666C16.3335 16.6666 16.6668 16.3333 16.6668 15.9258V13.3407C16.6668 12.9333 16.3335 12.5999 15.9261 12.5999C15.0076 12.5999 14.1113 12.4518 13.2816 12.1777C13.2076 12.1481 13.1261 12.1407 13.052 12.1407C12.8594 12.1407 12.6742 12.2147 12.5261 12.3555L10.8965 13.9851C8.80016 12.911 7.08164 11.1999 6.01498 9.10362L7.64461 7.47399C7.85201 7.26659 7.91127 6.9777 7.82979 6.71844C7.55572 5.88881 7.40757 4.99992 7.40757 4.07399C7.40757 3.66659 7.07424 3.33325 6.66683 3.33325Z" fill="#002F70"/>
</svg>
