<svg width="20" height="20" viewBox="0 0 20 20" fill="none" xmlns="http://www.w3.org/2000/svg">
<path d="M10.0001 18.3334C11.14 18.3334 12.2132 18.1149 13.22 17.6779C14.2267 17.2463 15.1109 16.6468 15.8726 15.8794C16.6396 15.112 17.2415 14.2274 17.6783 13.2255C18.115 12.2183 18.3334 11.1418 18.3334 9.99609C18.3334 8.85566 18.115 7.78452 17.6783 6.78266C17.2415 5.77546 16.6396 4.88817 15.8726 4.12078C15.1109 3.3534 14.224 2.75388 13.212 2.32222C12.2053 1.88524 11.132 1.66675 9.99209 1.66675C8.85222 1.66675 7.77892 1.88524 6.77221 2.32222C5.7655 2.75388 4.87864 3.3534 4.11162 4.12078C3.34993 4.88817 2.75069 5.77546 2.31392 6.78266C1.88247 7.78452 1.66675 8.85566 1.66675 9.99609C1.66675 11.1418 1.88247 12.2183 2.31392 13.2255C2.75069 14.2274 3.35259 15.112 4.11961 15.8794C4.88663 16.6468 5.77349 17.2463 6.7802 17.6779C7.78691 18.1149 8.86021 18.3334 10.0001 18.3334ZM10.0001 16.5029C9.0999 16.5029 8.25565 16.335 7.46732 15.9993C6.68433 15.6636 5.99454 15.1999 5.39797 14.6084C4.8014 14.0115 4.33533 13.3214 3.99976 12.5381C3.66952 11.7493 3.5044 10.902 3.5044 9.99609C3.5044 9.09547 3.66952 8.25348 3.99976 7.47011C4.33533 6.6814 4.79874 5.98862 5.38998 5.39177C5.98655 4.79491 6.67634 4.32862 7.45933 3.99289C8.24766 3.65716 9.09191 3.48929 9.99209 3.48929C10.8976 3.48929 11.7419 3.65716 12.5249 3.99289C13.3132 4.32862 14.003 4.79491 14.5942 5.39177C15.1908 5.98862 15.6568 6.6814 15.9924 7.47011C16.3333 8.25348 16.5038 9.09547 16.5038 9.99609C16.5038 10.902 16.336 11.7493 16.0004 12.5381C15.6648 13.3214 15.1988 14.0115 14.6022 14.6084C14.0109 15.1999 13.3212 15.6636 12.5328 15.9993C11.7445 16.335 10.9003 16.5029 10.0001 16.5029ZM15.2254 15.2799L15.1934 15.112C14.9964 14.7176 14.6581 14.3446 14.1787 13.9929C13.7047 13.6358 13.1134 13.3454 12.405 13.1216C11.6966 12.8978 10.8949 12.7859 10.0001 12.7859C9.11588 12.7859 8.31957 12.8978 7.61114 13.1216C6.90271 13.3454 6.30881 13.6358 5.82942 13.9929C5.35003 14.3446 5.0118 14.715 4.81472 15.104L4.78276 15.2799C5.29943 15.7275 5.86671 16.1032 6.48458 16.407C7.10246 16.716 7.71767 16.9479 8.33022 17.1024C8.94809 17.2623 9.50472 17.3422 10.0001 17.3422C10.5061 17.3422 11.0654 17.2623 11.6779 17.1024C12.2905 16.9479 12.903 16.716 13.5156 16.407C14.1335 16.1032 14.7034 15.7275 15.2254 15.2799ZM10.0001 11.4989C10.5221 11.5042 10.9908 11.3736 11.4063 11.1072C11.8217 10.8354 12.152 10.4704 12.397 10.0121C12.642 9.55377 12.7645 9.03952 12.7645 8.46931C12.7645 7.93107 12.6394 7.43813 12.389 6.99049C12.144 6.54285 11.8138 6.18314 11.3983 5.91135C10.9828 5.63957 10.5168 5.50368 10.0001 5.50368C9.48874 5.50368 9.02267 5.63957 8.60187 5.91135C8.1864 6.18314 7.8535 6.54285 7.60315 6.99049C7.35813 7.43813 7.23828 7.93107 7.24361 8.46931C7.24894 9.03952 7.37145 9.55377 7.61114 10.0121C7.85616 10.465 8.1864 10.8248 8.60187 11.0912C9.01734 11.3577 9.48341 11.4936 10.0001 11.4989Z" fill="#002F70"/>
</svg>
